<svg xmlns="http://www.w3.org/2000/svg" viewBox="0.01764705777168274 14.699999809265137 217.09161376953125 35.96379089355469" data-asc="0.96" width="217.09161376953125" height="35.96379089355469"><defs/><g fill="#000000"><g transform="translate(0, 0)"><path d="M31.35 50.40Q31.30 50.70 30.78 50.58Q30.25 50.45 29.85 49.85Q29.45 48.90 29.45 48.10Q29.45 47.30 29.50 45.70Q29.80 43.95 30.32 41.13Q30.85 38.30 31.57 34.77Q32.30 31.25 33.15 27.40Q33.75 25.40 34.13 23.72Q34.50 22.05 34.70 21Q34.90 19.95 34.90 19.95Q34.90 19.80 34.63 20.07Q34.35 20.35 34.10 20.70Q33.85 21.05 33.90 21.25Q33.90 21.25 33.55 21.75Q33.20 22.25 32.65 23.10Q32.15 23.60 31.45 25.10Q30.75 26.60 29.90 27.90Q29.10 29.40 28.20 31.13Q27.30 32.85 26.60 34Q26.15 34.65 25.70 35.50Q25.25 36.35 25.15 36.60Q24.95 37.15 24.45 37.92Q23.95 38.70 23.35 39.45Q23.05 39.90 22.75 40.38Q22.45 40.85 22.28 41.17Q22.10 41.50 22.10 41.50Q22.10 41.65 21.63 42.40Q21.15 43.15 20.48 44.05Q19.80 44.95 19.20 45.60Q17.45 47.45 16.40 47.77Q15.35 48.10 14.05 46.90Q13.40 46.10 13.10 45.08Q12.80 44.05 12.85 42.52Q12.90 41 13.20 38.70Q13.55 36.95 13.85 35.17Q14.15 33.40 14.43 31.82Q14.70 30.25 14.93 29.15Q15.15 28.05 15.30 27.70Q15.40 26.70 15.25 26.60Q15.10 26.50 14.65 27.20Q14.45 27.55 13.60 28.93Q12.75 30.30 11.63 32.30Q10.50 34.30 9.40 36.65Q7.35 40.45 6.03 42.92Q4.70 45.40 3.92 46.85Q3.15 48.30 2.80 49Q2.45 49.70 2.30 49.95Q2.15 50.20 2.05 50.30Q1.60 50.30 1.13 49.92Q0.65 49.55 0.15 49.05Q0 48.70 0.02 48.35Q0.05 48 0.35 47.33Q0.65 46.65 1.25 45.25Q1.90 43.95 2.45 42.98Q3 42 3.30 41.80Q3.55 41.40 3.75 41Q3.95 40.60 4 40.05Q4.25 39.75 4.78 38.83Q5.30 37.90 5.85 36.80Q6.25 36.15 6.88 35.10Q7.50 34.05 8.20 32.77Q8.90 31.50 9.45 30.35Q11.75 26.40 13.35 23.67Q14.95 20.95 15.75 20.20Q16 19.95 16.28 19.50Q16.55 19.05 16.55 18.70Q16.55 17.65 16.98 16.77Q17.40 15.90 17.85 16Q18.35 16 18.75 16.10Q19.15 16.20 19.60 16.75Q20.00 17.35 20.30 17.95Q20.60 18.55 20.25 20.35Q20.25 21.05 20.10 21.92Q19.95 22.80 19.83 23.52Q19.70 24.25 19.65 24.65Q19.00 26.60 18.45 29.02Q17.90 31.45 17.45 33.92Q17 36.40 16.70 38.52Q16.40 40.65 16.33 42.02Q16.25 43.40 16.40 43.60Q16.75 43.80 17 43.65Q17.25 43.50 17.85 42.35Q18.20 41.75 18.83 40.88Q19.45 40 20.05 39.25Q20.45 38.55 21.30 37.15Q22.15 35.75 23.48 33.55Q24.80 31.35 26.68 28.17Q28.55 25 30.95 20.80Q32.10 19.05 33.13 17.38Q34.15 15.70 34.80 15.20Q35.50 14.55 36.25 14.88Q37 15.20 37.58 16.20Q38.15 17.20 38.20 18.70Q38.25 19.40 38.02 20.95Q37.80 22.50 37.35 24.47Q36.90 26.45 36.20 28.55Q36.05 29.40 35.73 30.68Q35.40 31.95 35 33.30Q34.60 34.65 34.20 35.85Q33.95 37.50 33.63 39.10Q33.30 40.70 33.40 41.25Q32.95 42.05 32.80 43.55Q32.65 45.05 32.65 46.65Q32.45 48.60 32.35 49.40Q32.25 50.20 32 50.15Q31.35 49.95 31.35 50.40ZM40.35 46.40Q39.95 46 39.77 45.40Q39.60 44.80 39.65 44.20Q39.70 43.60 39.90 43.20Q39.90 42.80 40.02 42.58Q40.15 42.35 40.10 42.15Q40.05 41.95 40.20 41.45Q40.35 40.95 40.50 40.50Q40.85 39.70 41.25 38.58Q41.65 37.45 42 36.35Q42.35 35.25 42.60 34.45Q42.85 33.65 42.90 33.45Q42.90 32.85 43.70 32.80Q44.30 32.60 44.60 32.77Q44.90 32.95 45.40 33.75Q45.80 34.15 45.70 34.95Q45.60 35.75 45.05 36.95Q44.85 37.35 44.57 38.10Q44.30 38.85 44.20 39.45Q44 39.85 43.72 40.58Q43.45 41.30 43.25 41.95Q43.15 42.20 43.05 42.67Q42.95 43.15 42.80 43.67Q42.65 44.20 42.40 44.60Q41.95 46.65 41.57 47Q41.20 47.35 40.35 46.40M45.20 26.10Q44.95 25.85 44.75 25.38Q44.55 24.90 44.50 24.47Q44.45 24.05 44.60 24.05Q45 24 45.55 23.20Q46.10 22.40 46 21.80Q46 21.60 46.15 21.42Q46.30 21.25 46.50 21.20Q47.10 20.80 47.67 21.07Q48.25 21.35 48.75 22.15Q49.20 23.10 49 23.72Q48.80 24.35 47.90 25.45Q47.15 26.45 46.52 26.55Q45.90 26.65 45.20 26.10ZM66.85 45.70Q65.85 45.70 65.20 45.27Q64.55 44.85 64.10 43.85Q63.90 43.15 63.77 42.27Q63.65 41.40 63.65 40.63Q63.65 39.85 63.80 39.60Q64 39.40 63.98 38.88Q63.95 38.35 63.95 37.75Q63.90 36.75 63.48 36.63Q63.05 36.50 62.25 36.95Q61.35 37.50 59.90 38.42Q58.45 39.35 56.88 40.45Q55.30 41.55 53.90 42.75Q52.80 43.95 52.58 44.58Q52.35 45.20 51.95 45.20Q51.55 45.40 51.27 45.23Q51 45.05 50.50 44.65Q50.15 44.25 49.80 43.88Q49.45 43.50 49.35 43.30Q49.35 43.05 49.50 42.25Q49.65 41.45 49.88 40.65Q50.10 39.85 50.20 39.60Q50.45 39.60 50.63 39.10Q50.80 38.60 51.20 38Q51.30 37.40 51.73 36.38Q52.15 35.35 52.50 34.55Q53.20 33.35 53.48 32.55Q53.75 31.75 53.85 30.55Q53.80 30.35 53.95 30.18Q54.10 30 54.30 30L54.30 30L54.30 30Q54.70 29.60 55.25 29.77Q55.80 29.95 56.25 30.55Q57.15 31.75 56.98 33.02Q56.80 34.30 55.35 36.65Q55 37.45 54.83 37.88Q54.65 38.30 54.65 38.55Q54.65 38.55 55.17 38.20Q55.70 37.85 56.38 37.38Q57.05 36.90 57.45 36.65Q57.70 36.40 58.60 35.75Q59.50 35.10 60.52 34.48Q61.55 33.85 62.05 33.75Q62.45 33.55 62.90 33.38Q63.35 33.20 63.55 33.20Q63.95 33.20 64.58 33.63Q65.20 34.05 65.75 34.63Q66.30 35.20 66.40 35.60Q66.40 35.80 66.42 36Q66.45 36.20 66.50 36.40Q66.70 37.05 66.72 38.15Q66.75 39.25 66.65 40.15Q66.55 41.05 66.30 41.20Q66.30 41.20 66.33 41.33Q66.35 41.45 66.55 41.45Q66.55 41.65 66.55 41.67Q66.55 41.70 66.55 41.70Q66.30 41.70 66.35 42.13Q66.40 42.55 66.67 43.05Q66.95 43.55 67.25 43.85Q67.85 44.45 67.75 44.98Q67.65 45.50 66.85 45.70ZM71.45 49.85Q70.80 49.45 70.75 49.08Q70.70 48.70 71 47.65Q70.95 47 71.08 46.45Q71.20 45.90 71.25 45.70Q71.50 45.70 71.55 45.40Q71.60 45.10 71.60 44.90Q71.60 44.50 71.93 43.55Q72.25 42.60 72.50 41.60Q72.90 40.60 73.28 39.73Q73.65 38.85 73.65 38.65Q73.65 38.25 73.85 37.83Q74.05 37.40 74.30 37Q74.55 36.40 74.68 35.67Q74.80 34.95 74.80 34.55Q75.10 33.90 75.45 33.15Q75.80 32.40 76 31.60Q76.30 30.75 76.88 29.13Q77.45 27.50 78.10 25.80Q78.55 24.85 79 23.80Q79.45 22.75 79.80 22Q80.15 21.25 80.30 21.25Q80.30 21.25 80.30 21.07Q80.30 20.90 80.30 20.70Q80.30 20.45 80.70 19.72Q81.10 19 81.45 18.20Q81.95 17.45 82.15 16.77Q82.35 16.10 82.35 16.10Q82.35 16.10 82.53 15.80Q82.70 15.50 82.90 15.30Q83.55 14.85 84.13 14.95Q84.70 15.05 85.10 15.90Q85.50 16.70 85.45 17.22Q85.40 17.75 85 18.35Q84.60 19.25 83.95 20.63Q83.30 22 82.58 23.57Q81.85 25.15 81.23 26.57Q80.60 28 80.23 29.02Q79.85 30.05 79.85 30.30L77.80 35.35Q77.80 35.45 77.63 35.85Q77.45 36.25 77.18 37.05Q76.90 37.85 76.50 39.15Q76.10 40.45 75.55 42.30Q74.55 45.50 74 47.27Q73.45 49.05 73.13 49.73Q72.80 50.40 72.45 50.40Q72.25 50.40 72.03 50.23Q71.80 50.05 71.45 49.85M89.10 50.25Q88.65 50.30 87.88 49.83Q87.10 49.35 86.23 48.65Q85.35 47.95 84.58 47.20Q83.80 46.45 83.35 45.90Q82.55 44.75 81.35 42.88Q80.15 41 79.55 38.85Q79.20 37.25 78.85 36.33Q78.50 35.40 78.40 34.80L78.45 31.30L81 32.10Q81.25 34.80 81.78 36.58Q82.30 38.35 83.05 39.70Q83.65 41 84.40 42.27Q85.15 43.55 86 44.40Q87.15 45.65 88.05 46.25Q88.95 46.85 89.40 46.85Q89.65 46.90 90.13 47.20Q90.60 47.50 91.03 47.83Q91.45 48.15 91.50 48.45Q91.55 48.60 91.55 48.92Q91.55 49.25 91.48 49.52Q91.40 49.80 91.30 49.95Q91.15 50.30 90.78 50.58Q90.40 50.85 89.10 50.25M77.90 31.70L81.55 29.05Q81.70 28.90 82.63 28.05Q83.55 27.20 85.70 25.60L91.85 20.60Q93.10 19.95 94.43 18.95Q95.75 17.95 96.45 17.50Q97.30 16.90 97.95 16.45Q98.60 16 98.80 16.05Q99.20 15.85 99.63 16.17Q100.05 16.50 100.33 17.02Q100.60 17.55 100.55 17.95Q100.65 18.45 100.35 18.80Q100.05 19.15 98.90 19.80Q97.95 20.25 97.23 20.70Q96.50 21.15 96.35 21.45Q96.35 21.45 95.43 22.17Q94.50 22.90 93.05 23.90Q91.05 25.20 89.63 26.35Q88.20 27.50 87.80 28.10Q87.60 28.10 87.43 28.25Q87.25 28.40 87.05 28.35Q87.05 28.35 86.68 28.60Q86.30 28.85 86.10 29.10Q86 29.35 85.68 29.80Q85.35 30.25 84.85 30.20Q84.50 30.40 83.60 31.02Q82.70 31.65 81.73 32.40Q80.75 33.15 80.05 33.75Q79.35 34.35 79.30 34.45L77.90 31.70ZM97.50 47.25Q96.85 47.25 96.48 47Q96.10 46.75 95.55 46.30Q94.60 45.30 94.20 44.38Q93.80 43.45 93.95 42.60Q94.10 42.20 94.08 41.83Q94.05 41.45 94.05 41.45Q93.80 41.20 93.90 41.13Q94.00 41.05 94.10 40.85Q94.40 40.85 94.30 40.30Q94.20 39.90 94.70 38.55Q95.20 37.20 95.95 36Q96.25 35.50 96.85 34.67Q97.45 33.85 98.18 33.02Q98.90 32.20 99.50 31.70Q100.75 30.65 101.70 30.15Q102.65 29.65 103.75 29.40Q104.85 29.15 105.28 29.15Q105.70 29.15 106.45 29.95Q107.60 30.45 108.13 31.15Q108.65 31.85 108.80 33.20Q108.95 34.70 108.58 36.63Q108.20 38.55 106.20 41.40Q104.95 43.20 103.90 44.08Q102.85 44.95 101.40 45.80Q100.35 46.50 99.50 46.83Q98.65 47.15 97.50 47.25M102.30 41.95Q103.50 40.60 104.23 39.40Q104.95 38.20 105.60 36.35Q105.80 35.80 105.85 34.98Q105.90 34.15 105.83 33.42Q105.75 32.70 105.45 32.60Q104.85 32.25 104.00 32.38Q103.15 32.50 102.15 33.35Q100.60 34.65 99.45 36.58Q98.30 38.50 97.20 40.95Q96.45 42.75 96.88 43.83Q97.30 44.90 98.73 44.58Q100.15 44.25 102.30 41.95ZM115.05 45.75Q114.30 45.75 113.68 44.83Q113.05 43.90 112.78 42.42Q112.50 40.95 112.60 39.35Q112.60 37.75 112.78 36.77Q112.95 35.80 113.15 34.85Q113.30 34.55 113.33 34.35Q113.35 34.15 113.43 33.70Q113.50 33.25 113.75 32.20Q113.95 31.35 114.15 30.80Q114.35 30.25 114.55 30.05Q114.80 29.75 115.20 29.68Q115.60 29.60 116.00 29.75Q116.40 29.90 116.65 30.30Q116.95 30.55 116.98 31.43Q117.00 32.30 116.85 33.23Q116.70 34.15 116.40 34.55Q116.30 34.80 116.18 35.85Q116.05 36.90 115.93 38.05Q115.80 39.20 115.65 39.90Q115.50 40.80 115.83 41.35Q116.15 41.90 117.08 41.38Q118.00 40.85 119.55 38.60Q120.60 37.10 121.15 36.15Q121.70 35.20 122.03 34.38Q122.35 33.55 122.70 32.60Q122.95 31.80 123.18 31.27Q123.40 30.75 123.60 30.60Q123.95 30.35 124.43 30.40Q124.90 30.45 125.50 30.85Q126.10 31.45 126.10 32.27Q126.10 33.10 125.50 34.30Q125.10 35.10 124.73 36.35Q124.35 37.60 124.13 38.88Q123.90 40.15 123.90 40.95Q123.90 41.95 124.18 42.13Q124.45 42.30 124.85 42.30Q125.45 42.30 126.30 41.85Q127.15 41.40 128.20 40.30Q128.65 39.85 129.30 38.98Q129.95 38.10 130.58 37.13Q131.20 36.15 131.63 35.40Q132.05 34.65 132.05 34.45Q132.05 34.15 132.50 33.60Q132.80 33.20 132.98 32.98Q133.15 32.75 133.65 32.50Q134.05 32.30 134.35 32.42Q134.65 32.55 135.00 32.95Q135.25 33.15 135.28 33.55Q135.30 33.95 135.30 34.55Q135.15 35.10 134.83 35.98Q134.50 36.85 134.13 37.63Q133.75 38.40 133.50 38.70Q133.30 38.90 132.80 39.42Q132.30 39.95 131.90 40.55Q130.65 42.05 130.10 42.50Q129.55 42.95 129.15 43.35Q128.10 44.40 126.95 44.92Q125.80 45.45 124.78 45.45Q123.75 45.45 123.05 44.95Q121.50 44.15 121.50 42.25Q121.50 41.85 121.38 41.52Q121.25 41.20 121.25 41.20Q121.05 41.20 120.73 41.30Q120.40 41.40 120.05 42Q119.60 42.85 118.63 43.73Q117.65 44.60 116.65 45.17Q115.65 45.75 115.05 45.75ZM140.10 48.20Q139.15 47.80 138.30 47.13Q137.45 46.45 137.20 46Q137.20 45.55 137.35 45.38Q137.50 45.20 138.23 45.23Q138.95 45.25 140.60 45.45Q141.20 45.45 142.10 45.35Q143 45.25 143.78 45.05Q144.55 44.85 144.65 44.55Q144.90 44.55 144.75 44.38Q144.60 44.20 144.40 44Q144.20 44 143.95 43.83Q143.70 43.65 143.50 43.65Q143.50 43.40 143.03 43.08Q142.55 42.75 142.05 42.55Q140.95 41.65 140.15 40.92Q139.35 40.20 139.55 39.95Q139.55 39.75 139.55 39.73Q139.55 39.70 139.55 39.70Q139.20 39.70 138.78 38.70Q138.35 37.70 138.35 36.90Q138.35 36.30 138.70 35.38Q139.05 34.45 139.65 33.45Q140.25 32.45 140.90 31.80Q141.80 30.95 143.15 29.97Q144.50 29 145.83 28.22Q147.15 27.45 148.05 27.20Q148.95 26.85 149.73 26.85Q150.50 26.85 151.10 27.20Q151.60 27.45 152.03 27.92Q152.45 28.40 152.78 28.88Q153.10 29.35 153.20 29.70Q153.20 30.30 153.10 31.02Q153 31.75 152.83 32.30Q152.65 32.85 152.30 32.85Q152.30 32.85 152.18 32.88Q152.05 32.90 152.05 33.15Q152.05 33.65 151.30 34.30Q150.35 34.95 149.65 35.08Q148.95 35.20 148.80 34.55Q148.65 34.35 148.60 34.20Q148.55 34.05 148.35 34.05Q148.35 34.05 148.20 33.90Q148.05 33.75 148.05 33.40Q148.05 33.20 148.20 33.02Q148.35 32.85 148.35 32.85Q148.60 32.85 149 32.27Q149.40 31.70 149.73 31.02Q150.05 30.35 150.05 30.10Q150.05 29.80 149.98 29.75Q149.90 29.70 149.50 29.70Q148.80 30 147.80 30.50Q146.80 31 145.93 31.47Q145.05 31.95 144.65 32.35Q144.45 32.70 144.40 32.77Q144.35 32.85 144.15 32.85Q144.15 32.65 143.83 33.02Q143.50 33.40 143.03 34.05Q142.55 34.70 142.13 35.33Q141.70 35.95 141.50 36.25Q141.40 36.35 141.28 36.83Q141.15 37.30 141.15 37.70Q140.95 38.30 141.20 38.52Q141.45 38.75 142.30 39.45Q144.05 40.75 145.05 41.60Q146.05 42.45 146.55 43Q147.05 43.55 147.15 44Q148.05 45.50 147.70 46.30Q147.35 47.10 146 47.70Q145.50 47.95 144.35 48.10Q143.20 48.25 142 48.27Q140.80 48.30 140.10 48.20ZM154.70 47.75Q154.30 47.60 153.85 47.13Q153.40 46.65 153.10 46Q152.80 45.35 152.80 44.80Q153.05 44.25 153.45 42.88Q153.85 41.50 154.45 39.70Q154.85 39.15 155.08 38.40Q155.30 37.65 155.50 37.05Q155.90 36.25 156.45 34.98Q157.00 33.70 157.53 32.38Q158.05 31.05 158.45 30.15Q159.10 28.80 159.58 27.67Q160.05 26.55 160.53 25.40Q161.00 24.25 161.55 22.90Q162.15 21.50 162.78 20.05Q163.40 18.60 163.88 17.42Q164.35 16.25 164.45 15.75Q164.45 15.35 164.63 15.15Q164.80 14.95 165.00 14.95Q165.20 14.75 165.40 14.73Q165.60 14.70 165.80 14.70Q166.00 14.70 166.58 15.45Q167.15 16.20 167.15 16.80Q167.15 17.60 166.38 19.80Q165.60 22 164.20 24.80Q162.50 28.50 161.45 30.88Q160.40 33.25 160.00 34.42Q159.60 35.60 159.70 35.75Q159.70 35.75 160.40 35.42Q161.10 35.10 161.90 34.50Q162.45 34.20 163.10 33.75Q163.75 33.30 164.35 32.88Q164.95 32.45 165.35 32.35Q165.95 31.95 166.60 31.57Q167.25 31.20 167.45 31Q168.30 30.60 168.73 30.75Q169.15 30.90 169.60 31.50Q170.15 32.15 169.80 32.63Q169.45 33.10 168.15 33.90Q167.10 34.55 165.63 35.45Q164.15 36.35 163.03 37.05Q161.90 37.75 161.75 37.90Q161.75 37.90 162.15 38.65Q162.55 39.40 162.95 40Q163.35 40.80 163.83 41.48Q164.30 42.15 164.30 42.40Q164.85 43.95 165.95 44.65Q167.05 45.35 168.25 44.80Q169.25 44.40 169.73 44.55Q170.20 44.70 170.40 45.30Q170.60 45.70 170.53 45.88Q170.45 46.05 169.85 46.65Q168.90 47.60 167.93 47.85Q166.95 48.10 166.15 47.70Q165.40 47.75 164.30 46.73Q163.20 45.70 161.15 43.05Q161.15 42.85 160.98 42.48Q160.80 42.10 160.60 41.75Q160.40 41.35 160.10 40.88Q159.80 40.40 159.80 40.40Q159.80 40.20 159.65 39.95Q159.50 39.70 159.25 39.35Q158.45 39.10 158.10 39.65Q157.75 40.20 157.35 40.80Q157.10 41.45 156.73 42.63Q156.35 43.80 156.13 44.90Q155.90 46 156.00 46.40Q156.00 47.20 155.75 47.48Q155.50 47.75 154.70 47.75ZM173.40 46.40Q173.00 46 172.83 45.40Q172.65 44.80 172.70 44.20Q172.75 43.60 172.95 43.20Q172.95 42.80 173.08 42.58Q173.20 42.35 173.15 42.15Q173.10 41.95 173.25 41.45Q173.40 40.95 173.55 40.50Q173.90 39.70 174.30 38.58Q174.70 37.45 175.05 36.35Q175.40 35.25 175.65 34.45Q175.90 33.65 175.95 33.45Q175.95 32.85 176.75 32.80Q177.35 32.60 177.65 32.77Q177.95 32.95 178.45 33.75Q178.85 34.15 178.75 34.95Q178.65 35.75 178.10 36.95Q177.90 37.35 177.63 38.10Q177.35 38.85 177.25 39.45Q177.05 39.85 176.78 40.58Q176.50 41.30 176.30 41.95Q176.20 42.20 176.10 42.67Q176.00 43.15 175.85 43.67Q175.70 44.20 175.45 44.60Q175.00 46.65 174.63 47Q174.25 47.35 173.40 46.40M178.25 26.10Q178.00 25.85 177.80 25.38Q177.60 24.90 177.55 24.47Q177.50 24.05 177.65 24.05Q178.05 24 178.60 23.20Q179.15 22.40 179.05 21.80Q179.05 21.60 179.20 21.42Q179.35 21.25 179.55 21.20Q180.15 20.80 180.73 21.07Q181.30 21.35 181.80 22.15Q182.25 23.10 182.05 23.72Q181.85 24.35 180.95 25.45Q180.20 26.45 179.58 26.55Q178.95 26.65 178.25 26.10ZM210.25 50.40Q210.20 50.70 209.68 50.58Q209.15 50.45 208.75 49.85Q208.35 48.90 208.35 48.10Q208.35 47.30 208.40 45.70Q208.70 43.95 209.23 41.13Q209.75 38.30 210.48 34.77Q211.20 31.25 212.05 27.40Q212.65 25.40 213.03 23.72Q213.40 22.05 213.60 21Q213.80 19.95 213.80 19.95Q213.80 19.80 213.53 20.07Q213.25 20.35 213.00 20.70Q212.75 21.05 212.80 21.25Q212.80 21.25 212.45 21.75Q212.10 22.25 211.55 23.10Q211.05 23.60 210.35 25.10Q209.65 26.60 208.80 27.90Q208.00 29.40 207.10 31.13Q206.20 32.85 205.50 34Q205.05 34.65 204.60 35.50Q204.15 36.35 204.05 36.60Q203.85 37.15 203.35 37.92Q202.85 38.70 202.25 39.45Q201.95 39.90 201.65 40.38Q201.35 40.85 201.18 41.17Q201.00 41.50 201.00 41.50Q201.00 41.65 200.53 42.40Q200.05 43.15 199.38 44.05Q198.70 44.95 198.10 45.60Q196.35 47.45 195.30 47.77Q194.25 48.10 192.95 46.90Q192.30 46.10 192.00 45.08Q191.70 44.05 191.75 42.52Q191.80 41 192.10 38.70Q192.45 36.95 192.75 35.17Q193.05 33.40 193.33 31.82Q193.60 30.25 193.83 29.15Q194.05 28.05 194.20 27.70Q194.30 26.70 194.15 26.60Q194.00 26.50 193.55 27.20Q193.35 27.55 192.50 28.93Q191.65 30.30 190.53 32.30Q189.40 34.30 188.30 36.65Q186.25 40.45 184.93 42.92Q183.60 45.40 182.83 46.85Q182.05 48.30 181.70 49Q181.35 49.70 181.20 49.95Q181.05 50.20 180.95 50.30Q180.50 50.30 180.03 49.92Q179.55 49.55 179.05 49.05Q178.90 48.70 178.93 48.35Q178.95 48 179.25 47.33Q179.55 46.65 180.15 45.25Q180.80 43.95 181.35 42.98Q181.90 42 182.20 41.80Q182.45 41.40 182.65 41Q182.85 40.60 182.90 40.05Q183.15 39.75 183.68 38.83Q184.20 37.90 184.75 36.80Q185.15 36.15 185.78 35.10Q186.40 34.05 187.10 32.77Q187.80 31.50 188.35 30.35Q190.65 26.40 192.25 23.67Q193.85 20.95 194.65 20.20Q194.90 19.95 195.18 19.50Q195.45 19.05 195.45 18.70Q195.45 17.65 195.88 16.77Q196.30 15.90 196.75 16Q197.25 16 197.65 16.10Q198.05 16.20 198.50 16.75Q198.90 17.35 199.20 17.95Q199.50 18.55 199.15 20.35Q199.15 21.05 199.00 21.92Q198.85 22.80 198.73 23.52Q198.60 24.25 198.55 24.65Q197.90 26.60 197.35 29.02Q196.80 31.45 196.35 33.92Q195.90 36.40 195.60 38.52Q195.30 40.65 195.23 42.02Q195.15 43.40 195.30 43.60Q195.65 43.80 195.90 43.65Q196.15 43.50 196.75 42.35Q197.10 41.75 197.73 40.88Q198.35 40 198.95 39.25Q199.35 38.55 200.20 37.15Q201.05 35.75 202.38 33.55Q203.70 31.35 205.58 28.17Q207.45 25 209.85 20.80Q211.00 19.05 212.03 17.38Q213.05 15.70 213.70 15.20Q214.40 14.55 215.15 14.88Q215.90 15.20 216.48 16.20Q217.05 17.20 217.10 18.70Q217.15 19.40 216.93 20.95Q216.70 22.50 216.25 24.47Q215.80 26.45 215.10 28.55Q214.95 29.40 214.63 30.68Q214.30 31.95 213.90 33.30Q213.50 34.65 213.10 35.85Q212.85 37.50 212.53 39.10Q212.20 40.70 212.30 41.25Q211.85 42.05 211.70 43.55Q211.55 45.05 211.55 46.65Q211.35 48.60 211.25 49.40Q211.15 50.20 210.90 50.15Q210.25 49.95 210.25 50.40Z"/></g></g></svg>